<svg xmlns="http://www.w3.org/2000/svg" width="1280" height="640" viewBox="0 0 1280 640">
  <defs>
    <linearGradient id="bgGradient" x1="0%" y1="0%" x2="100%" y2="100%">
      <stop offset="0%" style="stop-color:#0a0a0a"/>
      <stop offset="100%" style="stop-color:#171717"/>
    </linearGradient>
  </defs>
  
  <!-- Clean dark background -->
  <rect width="1280" height="640" fill="url(#bgGradient)"/>
  
  <!-- CardioKinetic Icon (centered, clean) -->
  <g transform="translate(555, 210) scale(0.16)" fill="#ffffff">
    <path d="M528.928711,834.990234 C525.140442,837.155396 521.546631,838.952454 518.224976,841.159180 C514.365051,843.723450 511.110748,843.169373 507.179596,840.927429 C466.006958,817.447083 426.917969,790.856995 389.126404,762.312500 C348.393066,731.546143 309.412384,698.743347 273.493286,662.408264 C267.521179,656.367004 261.823273,650.054199 256.022919,643.844238 C255.143845,642.903076 253.973328,642.084106 254.075668,640.518860 C254.843597,639.225220 256.131744,639.662231 257.217377,639.672363 C278.742828,639.872192 300.184875,639.317383 320.989624,632.826782 C324.227417,631.816711 326.302521,633.586243 328.454926,635.610168 C347.394226,653.418762 366.745056,670.756714 386.898346,687.198730 C425.038055,718.315063 465.025757,746.814758 506.777954,772.883789 C511.504211,775.834778 514.908020,775.504517 519.373901,772.712708 C555.007751,750.436646 589.476318,726.527222 622.462463,700.470032 C658.997131,671.609863 693.924561,640.981323 725.461548,606.670593 C751.590149,578.243774 775.377014,548.026978 792.615051,513.217407 C808.617920,480.902130 819.687927,447.104431 817.569214,410.540680 C814.698181,360.995239 792.907898,321.676910 751.105896,294.187866 C724.218323,276.506653 694.406555,268.591278 662.402527,270.485321 C618.426453,273.087860 581.788696,290.835938 554.380127,325.949799 C541.357361,342.633606 529.576477,360.229889 517.528198,377.623230 C516.312256,379.378571 515.385742,381.398376 512.840881,382.840546 C509.364624,379.437500 506.847534,375.155182 504.056030,371.137299 C492.459167,354.445435 481.365021,337.360962 468.252411,321.805511 C446.439362,295.928741 418.911835,279.392273 385.476654,273.295715 C330.713226,263.310242 283.944885,278.676147 245.822815,319.022400 C225.592484,340.433014 214.477432,366.529755 209.985397,395.652161 C204.226944,432.984863 213.492981,467.623047 228.012238,501.408997 C231.010178,508.385132 234.440857,515.175293 237.574677,521.843872 C235.871399,523.860535 234.092484,523.282532 232.518494,523.285645 C214.519699,523.321289 196.519424,523.185181 178.522949,523.391602 C174.482910,523.437988 172.532059,521.832520 171.074753,518.337097 C156.215469,482.697174 147.486038,445.793945 149.849060,406.997223 C153.247589,351.199554 174.715073,303.368408 216.240341,265.586029 C246.911011,237.679840 283.164032,220.504761 324.432281,214.597672 C386.381378,205.730362 441.539612,221.474350 490.081604,260.730560 C496.812531,266.173920 503.087128,272.160767 508.767609,278.750183 C512.634216,283.235474 513.264526,283.209808 517.214844,278.868408 C536.458801,257.718872 559.356567,241.660355 585.431335,230.118408 C608.315613,219.988708 632.228760,213.758041 657.294067,212.636169 C728.489929,209.449585 787.249512,234.896820 832.531555,290.074951 C856.375000,319.129120 869.427002,353.074799 874.345947,390.174561 C881.332642,442.869965 869.449890,491.979553 845.827881,538.857849 C829.062012,572.130005 807.276062,601.894043 782.832092,629.820618 C750.926392,666.272095 715.869690,699.508911 678.346252,730.052124 C631.142822,768.474670 581.817932,803.976990 528.928711,834.990234 z"/>
    <path d="M586.101013,594.989563 C578.737610,611.092102 572.743652,627.348877 566.210083,643.384521 C562.479370,652.540833 557.829651,661.136353 550.882507,668.356873 C529.940369,690.122864 493.006500,686.763916 475.523041,661.586121 C466.040802,647.930847 461.588959,632.156433 456.249847,616.775940 C444.789764,583.762268 433.606171,550.652710 422.290955,517.588684 C418.949066,507.823395 415.576569,498.068237 412.141998,488.335297 C411.503754,486.526550 411.172363,484.402405 408.956116,483.457947 C406.596954,484.201599 406.630585,486.474121 406.006897,488.235779 C398.498138,509.446625 390.641235,530.501953 378.845978,549.819275 C355.161530,588.607727 321.137482,609.877441 275.177643,610.239136 C237.188095,610.538086 199.193954,610.224121 161.202957,610.410095 C156.214371,610.434509 154.510757,609.065918 154.612625,603.940491 C154.913879,588.782959 154.881439,573.613220 154.635223,558.453857 C154.559326,553.781067 156.195343,552.526611 160.685928,552.543396 C196.344452,552.676880 232.004150,552.681335 267.662537,552.518372 C275.290314,552.483521 282.968658,552.222534 290.439880,550.158997 C307.548645,545.433594 318.351837,533.425232 327.006866,518.829651 C338.143433,500.049408 344.821320,479.451233 351.677185,458.913239 C355.732544,446.764740 359.292206,434.413177 365.963196,423.304260 C376.218994,406.225769 391.448639,397.702515 411.194946,398.163849 C432.607391,398.664154 446.891113,410.401825 455.934479,429.050629 C463.878967,445.433502 468.452698,463.077271 474.371185,480.213684 C487.192688,517.337280 499.903778,554.499084 512.701965,591.630737 C513.322327,593.430603 513.410339,596.108459 515.827148,596.284363 C518.602173,596.486450 518.916687,593.672607 519.685303,591.755493 C533.807922,556.532166 550.955994,522.953430 573.315125,492.154572 C582.041870,480.133850 591.712585,468.919861 601.541138,457.817535 C605.587036,453.247314 605.558594,452.693817 600.815063,448.674866 C591.283203,440.599030 581.655762,432.636078 572.081909,424.609650 C570.067200,422.920593 567.805481,421.463379 565.924866,418.137451 C618.830627,400.646667 671.442505,383.253052 725.899170,365.249542 C716.334167,420.470825 706.515991,474.160278 696.945251,527.745483 C693.945007,528.263123 692.774597,526.349792 691.321838,525.130005 C680.094849,515.702942 668.814026,506.335815 657.766235,496.701904 C654.090515,493.496552 651.688782,493.476685 648.353394,497.282684 C625.366821,523.512634 606.357544,552.332886 591.279480,583.762695 C589.551453,587.364685 587.927063,591.016357 586.101013,594.989563 z"/>
  </g>
  
  <!-- App Name -->
  <text x="640" y="430" font-family="Inter, -apple-system, system-ui, sans-serif" font-size="48" font-weight="600" fill="#ffffff" text-anchor="middle" letter-spacing="-1">CardioKinetic</text>
  
  <!-- Tagline -->
  <text x="640" y="465" font-family="Inter, -apple-system, system-ui, sans-serif" font-size="16" font-weight="400" fill="#737373" text-anchor="middle" letter-spacing="0.5">Intelligent Cardio Training</text>
</svg>
